<svg width="384" height="297" viewBox="0 0 384 297" fill="none" xmlns="http://www.w3.org/2000/svg">
<path d="M340 252C350.5 253.5 381.708 237.5 383 227.5C383 244.5 367.8 282.9 357 280.5C360.5 278 359.5 266.5 357 268C309 299.5 237 308.5 177 276C175 278.5 179 284.5 183 289.5C178.333 292 168.5 286.5 166 270.5L151.5 262C149 263.5 147.5 266 151 285.5C145.167 284 134 275 134 249.5C134 242 126 239.5 118.5 229.5L156.5 249.5C216.5 285.5 263.3 287.3 278.5 284.5C257 285.5 220.5 273.5 207 254C223.5 267 276 290 325 272.5L352.5 259.5C351.5 254.5 343.5 259.5 340 252Z" fill="#06C730"/>
<path d="M46.5 229.5C61.5 206.342 104.9 218.4 158.5 240C146.5 229.5 81 194 56 204.5C54.6667 200.167 49 185 56 156.5C51.8333 161 43.5 175.3 43.5 196.5C40.5 192.333 31 184 13.5 187C14 180.5 11.5 139.5 25.5 112.5C18.5 121 6.49999 136.5 1.99999 161.5C-0.5 178.5 1.5 197.5 3.99999 204.5C35.5 194.5 39.5 206.5 46.5 229.5Z" fill="#06C730"/>
<path d="M367.5 248C364.667 251.333 357 255 352 254C353.833 256.333 357 261 359.5 257.5L367.5 248Z" fill="white"/>
<path d="M37 131C48 125 58.5 93 72.5 131C109 207 166 226 193.5 239.842C125.5 224 88 201 62.5 140.5C59.5 128.5 46.5 134 32.5 153C26 158.5 10.0217 136.5 36.5217 101.5C34.5217 109 32.5 127.5 37 131Z" fill="#06C730"/>
<path d="M262 262H268L275.5 226.5L279 229H304V220H281L269 210.5L265 231L243.5 118L219.5 226L210.5 211.5L200.5 219L177.5 218.5V227H204L208.5 223.5L223 248L243.5 154.5L262 262Z" fill="#EA9241"/>
<path d="M316 135.5H308.5L313 115H326.5L316 135.5Z" fill="#EA9241"/>
<path d="M360.5 220V226.5H382V220H360.5Z" fill="#EA9241"/>
<path d="M310 214H313.5C312.667 216.333 311.2 221.4 312 225H314C315.5 224 316 220.5 317 214H320L319.972 214.125C319.125 217.853 317.269 226.022 314.5 228H311C307.5 227 309 220.5 310 214Z" fill="#EA9241"/>
<path d="M39 60.5C52.2917 63.8329 63.8778 65.4906 78.5 65C80.5 65 80.5 63 79.5 62C78.5 61 74.5 57.5 74.5 57.5C74.5 57.5 46.6713 26.8384 49.5 1C55.5 19.5 58.5 29 72.5 41C82.5 49.5714 87 52.5 96.5 53.5C98.5 53.5 98.5 51 96.5 47C95.25 44.5 94.0106 41.6803 92 36C88.2274 22.2113 86.5605 12.5054 91 2C94.8352 32.4591 101.686 46.471 119.5 64C118 75 121.946 86.5 125.5 91.5C132.252 101 134.5 102 147.5 107.5C151 108.981 152.5 114 152 119C148.5 132.5 143.379 135.511 134.5 141.27C135.143 127.585 130.911 120.881 111 113.77C98.3254 107.979 92.446 102.945 82 92.5C83.8846 97.4549 85.0666 99.7328 87.5 102.5C97.375 113.729 105 116 117 127.5C119.5 129.896 119.5 133 118.5 134.5C117.5 136 115.5 137 112 136C108.5 135 99 120.606 86 112.606C84 111.376 78.5456 113.718 75 119.5V102C75 98.5 73.7465 96.6161 68 96.5C61.5983 96.3707 55.5548 100.779 43.8724 116.5C45.8724 101.5 48.8724 97 59.3724 90.5C55.8724 86.5 42.8246 83.882 31.5 89.5C35.3318 83.9214 39.5146 80.8912 47 81C61.0826 81.5001 65.3535 79.4132 64 74.5C61.5772 68.7565 53.9398 65.7975 39 60.5Z" fill="#06C730"/>
<path d="M105 81.5C102 73 95.7397 72.5225 86 72C90 75 91.1878 75.2036 91 76.5C91.7073 82.341 93.5 86.1667 99.5 89.5C104 92 107 92 111.5 92L109.5 89.5C102.5 86.5 98.7532 83.0383 96.5 78C100.5 78 100.5 78.5 105 81.5Z" fill="white"/>
<path d="M149 41.0001C149 66.5001 148.5 86.5 123 66.5003C125.5 72.5001 133 85.5 150.5 81.9157C156.116 80.7654 159.948 75.7878 159.948 64.7879C159.948 53.7895 164.445 52.79 167.999 52.0004L168 52.0001C172.5 51.0001 177.5 51.9552 184 53.0001C197 55.0899 212.187 59.1337 229.5 58.5535C246.813 57.9732 266 54.3026 288 46C305.657 39.3365 325.5 30.6616 336.717 21.7814C270.5 47.6616 226.5 50.5 168 33.5C158.367 30.7008 149 35.0001 149 41.0001Z" fill="#06C730"/>
<path d="M187.5 124C178.037 108.812 169.289 101.718 149 91C164.353 92.8713 176.5 99 185 108.5C195.5 93 201.5 89 220.5 89C214.5 80.5 199.892 72.1023 179 63C206.5 68.5 219.5 74 231.5 87C242.402 71.7713 268.5 54.5 320.5 41C253.5 70 238.549 84.6923 243 106.5C212.681 96.4768 200.747 102.172 187.5 124Z" fill="#06C730"/>
<path d="M320.5 214C318.5 238.5 303 227.5 309 214H313C310 223.5 314.5 231 316 214H320.5Z" fill="#06C730"/>
<path d="M331.5 214H322V217H324L323 228H326L327.5 217H331.5V214Z" fill="#06C730"/>
<path d="M332 227.5L333.5 214H341V217H336V219.5L340 220V223H336L335.5 228L332 227.5Z" fill="#06C730"/>
<path d="M344 214V228H348.5L355 214H351L347 223.5V214H344Z" fill="#06C730"/>
<path d="M137.942 125.026C132.442 120.026 131.942 115.296 134.442 115.296C136.942 115.296 138.942 119.526 137.942 125.026Z" fill="white"/>
<path d="M146.442 115.026C143.442 114.597 143.442 119.526 144.442 126.026C148.442 123.526 149.942 115.526 146.442 115.026Z" fill="white"/>
<path d="M340 252C350.5 253.5 381.708 237.5 383 227.5C383 244.5 367.8 282.9 357 280.5C360.5 278 359.5 266.5 357 268C309 299.5 237 308.5 177 276C175 278.5 179 284.5 183 289.5C178.333 292 168.5 286.5 166 270.5L151.5 262C149 263.5 147.5 266 151 285.5C145.167 284 134 275 134 249.5C134 242 126 239.5 118.5 229.5L156.5 249.5C216.5 285.5 263.3 287.3 278.5 284.5C257 285.5 220.5 273.5 207 254C223.5 267 276 290 325 272.5L352.5 259.5C351.5 254.5 343.5 259.5 340 252Z" stroke="white"/>
<path d="M46.5 229.5C61.5 206.342 104.9 218.4 158.5 240C146.5 229.5 81 194 56 204.5C54.6667 200.167 49 185 56 156.5C51.8333 161 43.5 175.3 43.5 196.5C40.5 192.333 31 184 13.5 187C14 180.5 11.5 139.5 25.5 112.5C18.5 121 6.49999 136.5 1.99999 161.5C-0.5 178.5 1.5 197.5 3.99999 204.5C35.5 194.5 39.5 206.5 46.5 229.5Z" stroke="white"/>
<path d="M367.5 248C364.667 251.333 357 255 352 254C353.833 256.333 357 261 359.5 257.5L367.5 248Z" stroke="white"/>
<path d="M37 131C48 125 58.5 93 72.5 131C109 207 166 226 193.5 239.842C125.5 224 88 201 62.5 140.5C59.5 128.5 46.5 134 32.5 153C26 158.5 10.0217 136.5 36.5217 101.5C34.5217 109 32.5 127.5 37 131Z" stroke="white"/>
<path d="M262 262H268L275.5 226.5L279 229H304V220H281L269 210.5L265 231L243.5 118L219.5 226L210.5 211.5L200.5 219L177.5 218.5V227H204L208.5 223.5L223 248L243.5 154.5L262 262Z" stroke="white"/>
<path d="M316 135.5H308.5L313 115H326.5L316 135.5Z" stroke="white"/>
<path d="M360.5 220V226.5H382V220H360.5Z" stroke="white"/>
<path d="M310 214H313.5C312.667 216.333 311.2 221.4 312 225H314C315.5 224 316 220.5 317 214H320L319.972 214.125C319.125 217.853 317.269 226.022 314.5 228H311C307.5 227 309 220.5 310 214Z" stroke="white"/>
<path d="M39 60.5C52.2917 63.8329 63.8778 65.4906 78.5 65C80.5 65 80.5 63 79.5 62C78.5 61 74.5 57.5 74.5 57.5C74.5 57.5 46.6713 26.8384 49.5 1C55.5 19.5 58.5 29 72.5 41C82.5 49.5714 87 52.5 96.5 53.5C98.5 53.5 98.5 51 96.5 47C95.25 44.5 94.0106 41.6803 92 36C88.2274 22.2113 86.5605 12.5054 91 2C94.8352 32.4591 101.686 46.471 119.5 64C118 75 121.946 86.5 125.5 91.5C132.252 101 134.5 102 147.5 107.5C151 108.981 152.5 114 152 119C148.5 132.5 143.379 135.511 134.5 141.27C135.143 127.585 130.911 120.881 111 113.77C98.3254 107.979 92.446 102.945 82 92.5C83.8846 97.4549 85.0666 99.7328 87.5 102.5C97.375 113.729 105 116 117 127.5C119.5 129.896 119.5 133 118.5 134.5C117.5 136 115.5 137 112 136C108.5 135 99 120.606 86 112.606C84 111.376 78.5456 113.718 75 119.5V102C75 98.5 73.7465 96.6161 68 96.5C61.5983 96.3707 55.5548 100.779 43.8724 116.5C45.8724 101.5 48.8724 97 59.3724 90.5C55.8724 86.5 42.8246 83.882 31.5 89.5C35.3318 83.9214 39.5146 80.8912 47 81C61.0826 81.5001 65.3535 79.4132 64 74.5C61.5772 68.7565 53.9398 65.7975 39 60.5Z" stroke="white"/>
<path d="M105 81.5C102 73 95.7397 72.5225 86 72C90 75 91.1878 75.2036 91 76.5C91.7073 82.341 93.5 86.1667 99.5 89.5C104 92 107 92 111.5 92L109.5 89.5C102.5 86.5 98.7532 83.0383 96.5 78C100.5 78 100.5 78.5 105 81.5Z" stroke="white"/>
<path d="M149 41.0001C149 66.5001 148.5 86.5 123 66.5003C125.5 72.5001 133 85.5 150.5 81.9157C156.116 80.7654 159.948 75.7878 159.948 64.7879C159.948 53.7895 164.445 52.79 167.999 52.0004L168 52.0001C172.5 51.0001 177.5 51.9552 184 53.0001C197 55.0899 212.187 59.1337 229.5 58.5535C246.813 57.9732 266 54.3026 288 46C305.657 39.3365 325.5 30.6616 336.717 21.7814C270.5 47.6616 226.5 50.5 168 33.5C158.367 30.7008 149 35.0001 149 41.0001Z" stroke="white"/>
<path d="M187.5 124C178.037 108.812 169.289 101.718 149 91C164.353 92.8713 176.5 99 185 108.5C195.5 93 201.5 89 220.5 89C214.5 80.5 199.892 72.1023 179 63C206.5 68.5 219.5 74 231.5 87C242.402 71.7713 268.5 54.5 320.5 41C253.5 70 238.549 84.6923 243 106.5C212.681 96.4768 200.747 102.172 187.5 124Z" stroke="white"/>
<path d="M320.5 214C318.5 238.5 303 227.5 309 214H313C310 223.5 314.5 231 316 214H320.5Z" stroke="white"/>
<path d="M331.5 214H322V217H324L323 228H326L327.5 217H331.5V214Z" stroke="white"/>
<path d="M332 227.5L333.5 214H341V217H336V219.5L340 220V223H336L335.5 228L332 227.5Z" stroke="white"/>
<path d="M344 214V228H348.5L355 214H351L347 223.5V214H344Z" stroke="white"/>
<path d="M137.942 125.026C132.442 120.026 131.942 115.296 134.442 115.296C136.942 115.296 138.942 119.526 137.942 125.026Z" stroke="white"/>
<path d="M146.442 115.026C143.442 114.597 143.442 119.526 144.442 126.026C148.442 123.526 149.942 115.526 146.442 115.026Z" stroke="white"/>
</svg>
